<?xml version="1.0" encoding="utf-8"?>
<!-- Generator: Adobe Illustrator 22.1.0, SVG Export Plug-In . SVG Version: 6.00 Build 0)  -->
<svg version="1.2" baseProfile="tiny" id="Binance_Logo"
	 xmlns="http://www.w3.org/2000/svg" xmlns:xlink="http://www.w3.org/1999/xlink" x="0px" y="0px" viewBox="0 0 5000 5000"
	 xml:space="preserve">
<rect id="BG_Remove_it" fill="#F3BA2C" width="5000" height="5000"/>
<g id="Logo">
	<g id="Triangles_1_">
		<polygon fill="#FFFFFF" points="3192.4,2934 3192.3,2934.1 2500,3626.5 1807.9,2934.4 1807.5,2934 2062.5,2679.8 2062.5,2679.8 
			2500,3117.3 2937.7,2679.6 		"/>
		<polygon fill="#FFFFFF" points="3192.3,2065.9 2937.7,2320.5 2500,1882.7 2062.5,2320.2 1807.9,2065.7 2500,1373.5 		"/>
	</g>
	<g id="Rectangles_1_">
		
			<rect x="3191.9" y="2320.1" transform="matrix(0.7071 -0.7071 0.7071 0.7071 -780.2225 3116.6204)" fill="#FFFFFF" width="360" height="360"/>
		
			<rect x="1448.1" y="2319.9" transform="matrix(0.7071 -0.7071 0.7071 0.7071 -1290.8722 1883.4688)" fill="#FFFFFF" width="360" height="360"/>
		<path fill="#FFFFFF" d="M2758.2,2499.9h0.1L2500,2241.5l-190.9,190.9h0l-21.9,21.9l-45.2,45.3l-0.4,0.3l0.4,0.4l258.1,258.1
			l258.3-258.3l0.1-0.1L2758.2,2499.9"/>
	</g>
</g>
</svg>
